<?xml version="1.0" encoding="utf-8"?>
<!-- Generator: Adobe Illustrator 26.0.3, SVG Export Plug-In . SVG Version: 6.00 Build 0)  -->
<svg version="1.1" id="Layer_1" xmlns="http://www.w3.org/2000/svg" xmlns:xlink="http://www.w3.org/1999/xlink" x="0px" y="0px"
	 viewBox="0 0 378.9 165.6" style="enable-background:new 0 0 378.9 165.6;" xml:space="preserve">
<style type="text/css">
	.st0{fill:#FFFFFF;}
</style>
<g id="Layer_2_00000000216648497873126360000016377728153189403282_">
</g>
<g id="Layer_1_00000036220107896604147220000012487517635986890685_">
	<g>
		<path class="st0" d="M143.3,40.3c-6.6-10.2-15.7-18.8-26.2-24.7C104.1,8.2,88.8,5,73.9,6.3c-13.5,1.2-26.6,6.1-37.5,14.1
			C25.7,28.3,17.1,39,11.9,51.2C5.7,65.5,4.2,81.7,7.6,96.9c2.7,12.4,8.7,24.1,17.2,33.5c7.7,8.7,17.5,15.5,28.2,19.8
			c9.3,3.7,19.5,5.5,29.5,5.2c13.7-0.3,27.2-4.5,38.7-12c11.1-7.2,20.2-17.4,26.1-29.2c6.6-13.1,9.2-28.2,7.3-42.8
			C153.3,60.4,149.4,49.7,143.3,40.3z M146.1,86.4c-0.2,3.1-1.1,6.3-3,8.8c-1.9,2.5-4.7,4.3-7.7,5.2c-2.9,0.8-6,0.2-8.7-1
			c-3.9-1.8-7.2-4.8-9.7-8.4c-2.6,3.3-5.2,6.7-7.2,10.3c-0.8,1.6-1.8,3.2-3.1,4.4c-0.8,0.8-1.8,1.4-2.6,2.2
			c0.4,4.9,1.2,9.7,2.1,14.6c0.7,4.2,1.5,8.3,2.4,12.4c0.2,0.8-0.1,1.7-0.8,2.2c-5.6,4.2-12.6,6.1-19.5,6.5
			c-7.8,0.5-15.7-0.5-23.2-2.6c-0.7-0.2-1.5-0.4-2.2-0.8c-0.6-0.4-1-1.2-0.8-2c0.6-3.2,0.8-6.6,0.9-9.9c0.1-4.6,0-9.2-0.2-13.7
			c-2.5-1.4-4.2-3.9-5.2-6.5c-1-2.4-1.5-4.9-2.3-7.4c-0.3,2.3-0.4,4.5-0.8,6.8c-0.7,3.5-2.1,6.9-4.2,9.8c-1.8,2.5-4.4,4.5-7.4,5.2
			c-3.2,0.7-6.6,0.4-9.5-1.1c-3.7-1.9-6.3-5.4-7.9-9.1c-0.5-1.1-0.6-2.4-1.6-3.2c0.1-0.1,0.3-0.3,0.4-0.4c-0.9-3.5-1.5-7.1-2-10.7
			c-0.7-5.3-1.1-10.7-1.3-16.1c0-4.7-0.3-9.4-0.4-14.2c0-3.8,0-7.7,1.6-11.2c1.2-2.5,2.3-5.1,2.5-7.9c0-0.7,0.5-1.3,1.1-1.6
			c-0.2-1,0.1-2.2,1.1-2.8c1.1-0.6,2.3-1.1,3.5-1.6c3.4-1.3,7-2.2,10.6-2c0.9,0,1.8,0.5,2.2,1.4c0.2,0.2,0.1,0.8,0.6,0.7
			c-0.2-2.9,0.1-5.9,1.5-8.4c0.8-1.4,2.1-2.6,3.7-3.1c1.5-0.5,3.1-0.3,4.6,0.1c0.4-2.4,1.7-4.7,3.7-6c2.7-1.7,6.3-2.2,9.1-0.4
			c1.5-3.3,5-5.4,8.5-5.8c2.2-0.4,4.6,0.3,6.3,1.7c1-2.3,2.7-4.4,5.1-5.3c2.7-1.1,5.7-0.6,8.3,0.6c1.7,0.8,2.9,2.2,3.5,4
			c0.8,2.5,0.6,5.1,0.2,7.7c0.3-0.5,0.8-1,1.3-1.3c3.7-2.1,8-2.9,12.2-3.2c1,0,2-0.2,2.9,0.3c0.6,0.4,1,1,1.1,1.7
			c0.6,0.1,1.2,0.3,1.6,0.9c1,1.7,2.5,3.2,4,4.5c1,0.8,2,1.5,2.9,2.4c2,2,3.5,4.5,4.8,7c1.4,2.7,2.7,5.5,4,8.3
			c1.5,3.2,3.1,6.3,4.5,9.5c2.9,6.5,5.4,13.1,7.2,20C145.8,80.7,146.3,83.5,146.1,86.4z"/>
		<path class="st0" d="M135.9,57c-1.2-2.5-2.4-5-3.6-7.5c-1.5-3.2-2.9-6.3-4.5-9.4c-1.4-2.5-3-5.1-5.3-6.9c-2.3-1.7-4.5-3.6-6-6
			c-0.3-0.6-1.1-0.3-1.6-0.4c-0.2-0.8-0.2-1.9-1.2-2.1c-1.5-0.1-3,0.1-4.6,0.3c-3.2,0.4-6.4,1.2-9.1,3c-0.9,0.6-0.3,1.7-0.2,2.5
			c-0.5,0.3-1,0.4-1.4,0.8c-0.4,0.6,0.6,1.3,0,1.8c-0.8,0.6-1.9,0.7-2.8,0.9c0.6-2.7,1.4-5.3,1.7-8.1c0.2-1.9,0.2-4-0.6-5.8
			c-0.6-1.4-1.8-2.4-3.2-3c-2.2-0.9-4.9-1.2-7.1-0.1c-2.5,1.2-4,3.8-4.4,6.5c-1.3-1.8-3.4-3-5.6-3.1c-1.7,0-3.5,0.5-5,1.3
			c-2.1,1.1-3.8,3.2-4.2,5.6c-1.1-1.2-2.7-2.1-4.3-2.1c-2.4,0-4.9,0.9-6.3,2.8c-1.2,1.5-1.6,3.4-1.6,5.2c-1.7-0.8-3.7-1.3-5.6-0.6
			c-1.6,0.5-2.7,2-3.3,3.5c-1.1,3.1-1.1,6.5-0.2,9.6c-0.4,0-0.9,0.1-1.3-0.2c-0.4-0.4,0-1.2-0.5-1.5c-0.5-0.2-1,0-1.5,0
			c-0.2-0.5-0.2-1.2-0.5-1.6c-0.3-0.5-1-0.4-1.5-0.5c-2.9-0.1-5.8,0.6-8.5,1.5c-1.5,0.5-3,1.1-4.4,1.9c-0.8,0.6-0.3,1.6-0.1,2.3
			c-0.5,0.3-1.3,0.4-1.4,1.1c-0.2,2.1-0.8,4.2-1.7,6.2c-0.4,1-1,2-1.4,3.1c-0.8,2.2-1,4.4-1,6.7c-0.1,4.9,0.3,9.7,0.4,14.6
			c0.1,5.3,0.4,10.5,1,15.7c0.5,4.4,1.2,8.7,2.2,13c1.1,4.4,3.4,8.8,7.2,11.4c2.9,2,6.6,2.6,10,1.8c2.3-0.6,4.4-2.1,5.9-3.9
			c2-2.4,3.4-5.4,4.2-8.4c0.5-1.9,0.7-3.8,0.9-5.8c0.3-3,0.6-6,1-9c0.7,2,1.3,4,1.9,6c0.7,2.5,1.2,5,2.2,7.4c1,2.5,2.7,5,5.2,6.1
			c0.2,4.6,0.3,9.2,0.2,13.8c-0.1,3.7-0.3,7.4-1,11c0,0.6,0.7,0.7,1.1,0.8c7.4,2.1,15.1,3.2,22.8,2.9c6.7-0.4,13.6-2,19.2-6
			c0.3-0.3,0.9-0.5,0.8-1.1c-0.9-4.3-1.7-8.6-2.5-13c-0.8-5-1.8-10-2-15.1c0.6-0.4,1.2-1,1.8-1.4c1.4-1,2.5-2.3,3.3-3.8
			c2.5-4.8,5.9-9.1,9.2-13.4c0.7,1,1.4,2.1,2.2,3.1c1.6,1.9,3.4,3.6,5.5,5c2.2,1.4,4.7,2.5,7.3,2.6c3,0.2,5.9-1.1,8.2-3
			c2.7-2.3,4.1-5.7,4.4-9.2c0.4-3.1-0.1-6.3-1-9.3C141.7,70.7,139,63.8,135.9,57z M113.7,25.6c0.1,0.4,0.2,0.9,0.3,1.3
			c-0.4,0-0.8,0.1-1.2,0.1c-0.2-0.5-0.3-0.9-0.5-1.4C112.8,25.6,113.2,25.6,113.7,25.6z M110.2,25.8c0.1,0.5,0.2,1,0.4,1.5
			c-0.7,0.1-1.4,0.2-2.1,0.4c-0.2-0.5-0.3-1-0.5-1.6C108.7,26,109.4,25.9,110.2,25.8z M106.8,26.3c0.1,0.5,0.2,1.1,0.4,1.6
			c-0.7,0.2-1.5,0.4-2.2,0.6c-0.1-0.5-0.3-1.1-0.4-1.6C105.3,26.7,106.1,26.5,106.8,26.3z M101.6,28.1c0.1,0.5,0.2,1,0.4,1.5
			c-0.4,0.2-0.8,0.3-1.2,0.5c-0.1-0.4-0.2-0.8-0.3-1.3C100.8,28.5,101.2,28.3,101.6,28.1z M82.9,33.1c0.2-1.1,0-2.2,0-3.3
			c0-2.2,0.1-4.3,0.5-6.5c0.5-2.4,2.2-4.7,4.7-5.4c1.8-0.5,3.8,0,5.5,0.8c1.7,0.9,2.4,2.8,2.4,4.6c0.2,3.4-0.8,6.7-1.6,10
			c-0.7,2.8-0.9,5.6-1.8,8.3c-0.4,1.2-1,2.5-2.1,3.2c-1.2,0.8-2.7,0.7-4,0.2c-1.6-0.6-2.5-2.2-2.9-3.7
			C82.7,38.7,82.7,35.9,82.9,33.1z M95,37.4c0.2,0.2,0.5,0.4,0.5,0.8c0.2,1,0.5,2,0.7,3c0.1,0.8-1.1,1.3-1.6,0.6
			c-0.3-0.5-0.4-1.1-0.3-1.7C94.6,39.2,94.8,38.3,95,37.4z M92.8,51.8c-0.1,1.2-1.3,2-2.4,2.4c-1.6,0.5-3.2-0.3-4.2-1.5
			c-0.3-0.4-0.7-1-0.4-1.6c0.3-0.5,0.9-0.8,1.5-1C89.1,50.6,90.9,51.4,92.8,51.8z M69.6,25.1c1.4-1.9,3.6-2.9,5.8-3.2
			c2.8-0.5,5.7,1.6,6.2,4.3c-0.1,1.7-0.2,3.4-0.1,5.1c0.1,1.1-0.1,2.1-0.2,3.2c-0.1,2.9,0,5.8,1.2,8.5c0.5,2.2-0.2,4.7-2,6
			c-2.1,1.6-5.2,1.2-7.1-0.5c-1-0.9-1.4-2.3-1.8-3.5c-1.5-5-2.2-10.1-3.2-15.1C68.2,28.3,68.6,26.5,69.6,25.1z M83.6,57.1
			c0.2,0.3,0.5,0.7,0.7,1c-7.1,1.9-14.3,3.6-21.5,5c-2,0.4-3.8-1.3-4.1-3.2c0.6,1.5,2.1,2.9,3.8,2.5C69.5,60.5,76.5,58.7,83.6,57.1z
			 M57,29.8c0.7-1.5,2.2-2.5,3.8-2.9c1.2-0.3,2.6-0.4,3.7,0.2c1.3,0.6,2.3,1.8,2.8,3.2c1,5.3,1.8,10.6,3.4,15.7
			c-0.1,1.6-0.5,3.2-1.5,4.4c-0.8,1.1-2.3,1.8-3.6,1.5c-1.7-0.4-3.1-1.7-4.3-3c-0.3-0.4-0.5-0.9-0.6-1.3c-1.5-4.4-2.9-8.8-4.4-13.2
			C56,33,56.3,31.3,57,29.8z M47.1,37.1c0.5-1.3,1.4-2.7,2.8-3.1c1.8-0.5,3.6,0.2,5.1,1c1.4,4.1,2.7,8.2,4.1,12.3
			c1.1,2.5-0.4,6-3.2,6.7c-1.6,0.3-3.1-0.6-4.3-1.5C47.2,48.8,45.3,42.5,47.1,37.1z M41.2,43.2c0.1,0.4,0.2,0.8,0.3,1.2
			c-0.5,0-1,0.1-1.5,0.2c-0.1-0.5-0.2-0.9-0.4-1.4C40.1,43.1,40.6,43.1,41.2,43.2z M36.6,43.4c0.1,0.5,0.2,1,0.4,1.5
			c-0.8,0.2-1.6,0.3-2.4,0.5c-0.1-0.5-0.2-1-0.4-1.5C35,43.7,35.8,43.5,36.6,43.4z M33,44.3c0.1,0.5,0.2,1,0.2,1.5
			c-0.7,0.2-1.4,0.4-2,0.6C31.1,46,31,45.5,30.9,45C31.6,44.8,32.3,44.5,33,44.3z M29,45.9c0.1,0.4,0.1,0.9,0.2,1.3
			c-0.3,0.1-0.6,0.2-0.9,0.4c-0.1-0.4-0.2-0.8-0.2-1.2C28.3,46.2,28.6,46,29,45.9z M46.5,117.9c-1.6,1.5-3.8,2.5-6.1,2.5
			c-2.9,0.2-5.9-0.9-8.1-2.8c-1.9-1.7-3.4-3.9-4.3-6.3c3.6,2.5,8.2,2.9,12.4,2.7c3.9-0.3,8-1.3,10.9-4.2
			C50.3,112.8,48.8,115.7,46.5,117.9z M53.6,92.5c-0.5,4.1-0.8,8.1-1.3,12.2c-0.1,0.7,0,1.4-0.5,2c-0.9,1.7-2.3,3.1-4,4
			c-2.9,1.5-6.1,1.9-9.3,2c-3.5,0-7.1-0.6-9.9-2.7c-0.6-0.5-1.5-0.9-1.5-1.8c-1.8-7.3-2.6-14.8-3-22.2c-0.2-3.3-0.2-6.6-0.3-10
			c-0.1-3.9-0.4-7.9-0.2-11.8c0.1-2.2,0.4-4.5,1.4-6.6c1.3-2.6,2.3-5.3,2.6-8.2c4.9-2.2,10.1-3.6,15.5-3.8c0.2,0.5,0.4,1.1,0.9,1.4
			c0.7,0.5,1.6,0.3,2.4,0.3c0.1,0.2,0.2,0.5,0.3,0.7c-0.9,0.2-1.9,0.4-2.8,0.2c-0.8-0.2-1.3-1-1.9-1.6c-2.9,0-5.7,0.8-8.5,1.6
			c-1.8,0.6-3.7,1.1-5.4,1.8c1.2,0.1,2.4-0.2,3.6-0.3c3.2-0.5,6.3-1.2,9.4-1.9c1.1,0.9,2.6,1.4,4,1.1c0.6-0.1,1.2-0.4,1.8-0.6
			c0.7,1.4,1.6,2.7,2.6,3.9c0.4,0.4,0.5,1,1,1.3c1.1,0.4,1.9,1.2,3,1.6c0.9,0.3,1.9,0.5,2.9,0.3c0.5,2,1,4,1.5,6
			c0.6,2.3,3,4.1,5.4,3.6c7.4-1.8,14.8-3.6,22.3-5.4c1.3,1.5,3,2.7,4.8,3.6c-1.7,2.6-2.2,5.9-1.2,8.8c0-0.8-0.1-1.6,0-2.4
			c0.2-2.2,1-4.2,2.3-5.9c0.5,0.2,1,0.4,1.5,0.5c-1.6,1.9-2.3,4.3-2,6.8c0.3,2.7,2,5.2,4.3,6.6c-0.9,0.5-1.8,1-2.7,1.6
			c-1.2-1.2-2.1-2.7-2.8-4.3c0.3,1.7,1,3.4,2.1,4.8c-0.6,0.4-1.1,0.9-1.7,1.3c-0.5,0.2-1,0.3-1.5,0.4c-0.3-0.3-0.7-0.8-1.2-0.7
			c-3.2,0.8-6.5,1.5-9.7,2.3c-0.5,0.1-0.6,0.7-0.8,1c-1.5,0.4-3,0.7-4.5,1.1c0.5-2,0.6-4.1-0.1-6c0.5,3.9-1.1,8-4.3,10.3
			c-2.2,1.3-4.8,2.1-7.4,1.8c-1.3-0.2-2.5-0.5-3.7-1c-2.5-1.3-4.3-3.6-5.3-6.2c0.3,2.4,1.6,4.6,3.4,6.2
			C54.3,90.8,53.7,91.6,53.6,92.5z M95.2,70.8c0.1-0.7,0.1-1.5,0.4-2.2c0.3-0.8,0.9-1.4,1.6-1.9c0.5,1.6,1,3.2,1.6,4.8
			c0,0.2,0.3,0.4,0.1,0.7c-1.1-0.1-2-0.9-2.5-1.9c0.2,1.4,1.5,2.5,2.9,2.6c0.3,0.8,0.6,1.5,1,2.2c-1.2,0.2-2.6-0.1-3.6-0.8
			c-1.7-1-2.7-3-2.4-5c0.2-1.7,1.2-3.2,2.6-4c0,0.2,0.2,0.5,0.2,0.7C95.4,67,94.7,69,95.2,70.8z M93.5,67.9
			c-0.7,2.1-0.2,4.5,1.3,6.1c0.9,1,2.2,1.6,3.5,1.9c-0.4,0.1-0.7,0.3-1.1,0.4c-2.1-0.6-3.9-2.4-4.5-4.5c0.3,2.2,1.9,4,3.8,4.9
			c-0.2,0.1-0.3,0.2-0.5,0.3c-2.1-1-3.8-3-4.3-5.3c-0.7-2.5,0.1-5.4,2-7.3c0.7,0.2,1.5,0.3,2.2,0.4C94.8,65.5,93.9,66.6,93.5,67.9z
			 M61.6,110c-1.7-2.5-2.3-5.4-3.1-8.3c-0.9-3.4-2-6.7-3.2-10c0.1-0.2,0.3-0.4,0.4-0.6c0.2,0.1,0.4,0.2,0.6,0.3
			c0.2,1.5,1.2,2.8,1.8,4.2c0.9,2.2,1.5,4.6,2.1,6.9c0.5,1.8,1.1,3.8,2.6,4.9c-0.2-0.7-0.7-1.3-1-2c-0.8-1.5-1.1-3.3-1.4-5
			c-0.5-2.9-1.4-5.8-2.5-8.6c2.8,1,5.9,1,8.5-0.3c2.5-1.2,4.9-2.9,6.3-5.4c2.8-0.7,5.6-1.4,8.3-2c1-0.1,1.9-0.3,2.8-0.6
			c-2.3,1.8-4.3,4.1-5.6,6.8c-1.2,2.5-1.9,5.3-1.9,8.1c0,0.2,0,0.4,0.2,0.5c0.3-0.1,0.3-0.5,0.3-0.8c0.2-3.7,1.8-7.3,4.1-10.2
			c1.6-2,3.8-3.6,6.1-4.8c-2.5,2.8-4.5,6.2-5.4,9.9c-0.7,2.8-0.5,6,0.8,8.6c1.2,2.5,3.5,4.4,6,5.5c-2.9-0.2-6-0.5-8.7,0.7
			c-2.5,1-4.2,3.1-6.7,4.2c-2.1,0.9-4.4,1.3-6.7,1C64.5,112.9,62.7,111.7,61.6,110z M103.5,122.8c0.7,4.2,1.5,8.3,2.4,12.5
			c-3,2.2-6.5,3.6-10.1,4.5c-4.7,1.2-9.5,1.5-14.3,1.3c-5.6-0.3-11.2-1.2-16.6-2.8c0.6-3.5,0.8-7,0.9-10.5c0.1-4.5,0-8.9-0.2-13.3
			c2.9,0.5,5.9,0.1,8.6-1.1c2.1-1,3.7-2.8,5.8-3.8c1.9-1,4.1-1,6.2-0.9c3.6,0.2,7.2,0.8,10.8,0.5c1.5-0.1,3-0.4,4.4-1
			C101.8,113,102.6,117.9,103.5,122.8z M108.6,98.2c-1.2,1.8-1.9,3.9-3.4,5.4c-2.3,2.5-5.8,3.6-9.1,3.7c-3,0-6-0.4-8.6-2
			c-2.4-1.5-4.2-4-4.6-6.8c-0.6-3.5,0.6-7.2,2.4-10.2c3.6-6,9.8-10,16.4-12c0.4-0.2,0.5-0.7,0.2-1c-1.1-1.8-1.7-3.8-2.4-5.8
			c-0.4-1.3-0.9-2.6-1.1-4c-0.4-1.7-0.9-3.4-1.7-5c-0.1,0-0.2,0.1-0.2,0.1c0,0.8,0.3,1.6,0.5,2.4c-3.7,0-7.3-1.5-10-4.1
			c-1.6-1.5-2.9-3.3-3.5-5.5c-0.2-0.9-0.4-2.1,0.3-2.9c0.7-0.7,1.7-0.9,2.6-0.8c-0.5,0.4-1,1-1.1,1.6c-0.2,1.2,0.6,2.2,1.5,2.8
			c1.3,1,3.2,1.2,4.6,0.5c1.1-0.6,2-1.6,2.1-2.8c2.3,0.5,4.7,0.8,7.1,0.8c1.3,0,2.7,0.2,4,0.4c-2.2,1.2-3.5,3.4-4.5,5.6
			c0.4-0.1,0.5-0.4,0.7-0.7c0.7-1.1,1.4-2.3,2.5-3.1c0.8-0.7,1.8-1,2.8-1.1c1-0.3,1.8,0.4,2.6,0.9c-1.8,0.6-3.6,1.7-4.7,3.3
			c0,0.1,0,0.3-0.1,0.4c0.7-0.8,1.4-1.6,2.3-2c1.1-0.6,2.3-0.5,3.5-0.7c1.3,1.5,2,3.4,2.7,5.2c1.1,2.9,2.1,5.8,3.7,8.5
			c1.4,2.5,3.2,4.8,4.7,7.3c0.7,1.1,1.4,2.4,1.2,3.7c-0.2,1.2-1.2,2-1.9,3C115.9,88.1,111.9,92.9,108.6,98.2z M103.6,47.2
			c0.5-0.6,1.1-1.1,1.9-1.3c1.6-0.4,3.3,0.5,3.8,2c0.5,1.4,0,3.1-1.3,3.9c-0.5,0.3-1,0.6-1.6,0.4c-0.7-0.2-1.5-0.3-2.2-0.5
			C102.9,50.7,102.6,48.5,103.6,47.2z M119.5,89.8c-0.6-0.7-1-1.5-1.5-2.2c0.4-0.5,0.8-0.9,1.2-1.4c0.5,0.7,0.8,1.4,1.3,2.1
			c1.5,1,3.3,1.7,5.1,2c1,0.2,2,0.2,2.9-0.2c-1.9-2.8-3.8-5.5-5.7-8.4c0.9-1.8,0.2-4-0.8-5.6c-1.8-3-4-5.7-5.6-8.8
			c2.9-1,5.6-2.5,7.8-4.6c1.1-1.1,2.1-2.5,2.7-4c-2,2-4.4,3.7-7.1,4.7c-1.5,0.5-3.1,0.8-4.7,1c-0.2-0.4-0.3-0.9-0.5-1.3
			c2.9-0.2,5.7-1.2,8-3c2.7-2,4.6-5.1,5.3-8.4c-0.8,2.4-2.2,4.7-4.1,6.5c-2.6,2.4-6.1,3.8-9.6,3.8c-1.1-2.8-1.9-6-4.3-8.1
			c-0.5-0.5-1.1-0.8-1.7-1.1c0.9-0.5,1.6-1.2,2-2.2c0.6-1.5,0.3-3.3-0.8-4.5c-1.1-1.2-2.9-1.6-4.4-1c-1.5,0.5-2.6,1.9-2.8,3.5
			c-0.1,1,0.2,2,0.7,2.9c-0.8-0.1-1.6-0.1-2.4-0.2c-0.8-3.3-0.5-6.9,1-9.9c1.4-2.8,3.7-5.1,6.5-6.5c3.1-1.5,6.8-1.8,10.1-1
			c-3.1-1.2-6.7-1.1-9.9,0c-2.9,1-5.3,3-7,5.6c-2.3,3.4-3.1,7.7-2.2,11.7c-1.9-0.1-3.8-0.4-5.7-0.8c-0.5-1.7-0.9-3.5-1.3-5.2
			c0.8-0.9,1.4-2,1.8-3.1c0.4,0.5,1.1,1,1.8,0.8c1-0.1,1.7-1.2,1.5-2.2c-0.2-1-0.5-2.1-0.8-3.1c-0.2-0.6-0.7-1-1.2-1.2
			c0.1-0.3,0.1-0.7,0.2-1c1.3-0.4,2.8-0.5,3.9-1.3c0.7-0.5,0.9-1.4,0.7-2.3c4.9-2.3,10.2-3.4,15.5-3.7c1.6,2.5,3.9,4.4,6.2,6.2
			c2.4,1.9,3.9,4.6,5.3,7.2c1.5,2.8,2.8,5.8,4.1,8.7c1.2,2.7,2.6,5.3,3.8,7.9c2.6,5.7,4.9,11.5,6.7,17.5c0.5,1.6,1,3.2,1.2,4.8
			c-0.6,2.1-1.9,4-3.4,5.4c-2.4,2.1-5.2,3.7-8.2,4.8c-2.1,0.7-4.4,1.2-6.6,1.1C122.7,91.7,121,91,119.5,89.8z M141.5,92.7
			c-1.5,2.6-4.2,4.5-7.2,5.2c-2.3,0.5-4.8-0.1-6.9-1.1c-2.1-1-3.9-2.5-5.6-4.1c2,0.7,4.2,0.7,6.3,0.3c3.6-0.7,7-2.1,10-4.2
			c2.1-1.5,4-3.4,5.2-5.7C143.6,86.4,143.2,89.8,141.5,92.7z"/>
		<path class="st0" d="M98.2,28.8c-0.1,0.3-0.1,0.7-0.2,1.1C98.5,29.7,98.2,29.2,98.2,28.8z"/>
		<path class="st0" d="M85.8,43.1c1.2,0.7,2.7,0.5,3.8-0.3c0.4-0.4,1-0.8,0.8-1.4c-1.1,0.7-2.5,1.3-3.8,0.8c-1.5-0.5-2-2.2-1.8-3.6
			c0.2-1.9,2.3-3.4,4.2-2.9c0.7,0.2,1.2,0.6,1.7,1.1c0.4,0,0.1-0.5,0-0.7c-0.9-1.5-3-1.8-4.4-1c-1.6,0.9-2.3,2.8-2.2,4.5
			C84.1,41,84.6,42.4,85.8,43.1z"/>
		<path class="st0" d="M114,43c1.4-0.6,2.4-1.9,2.5-3.4c0.2-1.4-0.4-2.9-1.6-3.8c-1-0.8-2.3-1.1-3.5-0.8c-1.6,0.3-3,1.7-3.2,3.4
			c-0.3,1.5,0.3,3.1,1.5,4C110.9,43.3,112.6,43.6,114,43z M109.2,39.8c-0.4-1.6,0.7-3.4,2.3-3.8c1.8-0.6,3.9,0.8,4.1,2.7
			c0.3,1.8-1.2,3.7-3,3.7C111,42.5,109.5,41.3,109.2,39.8z"/>
		<path class="st0" d="M74.6,47.7c0.9,1,2.3,1.4,3.5,0.9c2-0.6,3.1-3.2,2.2-5.1c0,0.1-0.1,0.3-0.2,0.4c0,1.1-0.4,2.3-1.3,3
			c-1.1,1-3,0.9-3.9-0.3c-0.9-1.1-1.1-2.6-1.1-4c0-1.7,1.4-3.2,3.1-3.3c1-0.1,1.9,0.3,2.8,0.6c-0.2-0.6-0.7-0.8-1.2-1.1
			c-1.5-0.7-3.4-0.2-4.4,1c-1,1.2-1.2,3-0.9,4.5C73.5,45.6,73.8,46.8,74.6,47.7z"/>
		<path class="st0" d="M115,38.6c-0.1,0.6-0.2,1.3-0.7,1.8c-0.7,1-2.1,1.3-3.2,0.8c-0.6-0.3-1-0.9-1.4-1.4c0.1,1.5,1.7,2.6,3.2,2.3
			C114.5,41.8,115.6,40,115,38.6z"/>
		<path class="st0" d="M121.5,41.1c-1.6,0.3-2.9,1.6-3.2,3.2c-0.4,1.6,0.3,3.4,1.6,4.3c1.3,1,3.3,1.1,4.7,0.1
			c1.5-0.9,2.2-2.9,1.8-4.6C125.9,42.1,123.6,40.6,121.5,41.1z M122.6,48.5c-1.8,0.2-3.5-1.4-3.5-3.2c-0.1-1.4,0.9-2.8,2.2-3.2
			c1.8-0.7,4,0.7,4.3,2.6C125.9,46.5,124.4,48.4,122.6,48.5z"/>
		<path class="st0" d="M63.4,49.7c0.8,0.8,2,1.2,3.2,1c1.3-0.2,2.5-1.3,2.7-2.6c0.1-0.5,0.2-1-0.2-1.4c-0.3,0.7-0.6,1.5-1.2,2
			c-0.9,0.8-2.3,0.8-3.4,0.2c-1.4-0.8-2.3-2.4-2.5-4.1c-0.1-0.9,0.4-1.9,1.2-2.3c1.1-0.6,2.5-0.8,3.6-0.3c0.6,0.2,1,0.8,1.4,1.2
			c-0.2-1.3-1.4-2.1-2.7-2.3c-1.1-0.2-2.2,0-3.2,0.5c-0.8,0.5-1.2,1.6-1.3,2.6C61,46.3,61.8,48.4,63.4,49.7z"/>
		<path class="st0" d="M120.3,44.2c0.3-0.7,0.9-1.2,1.5-1.6c-1.5,0.1-2.6,1.6-2.3,3.1c0.2,1.6,2,2.8,3.5,2.1
			c-0.6-0.1-1.2-0.2-1.7-0.5C120.3,46.7,119.8,45.3,120.3,44.2z"/>
		<path class="st0" d="M54.8,52.3c1,0.1,2-0.3,2.5-1.2c0.5-1,0.3-2.2-0.2-3.2c-0.5,0.5-0.1,1.2-0.3,1.8c-0.1,1-1.2,1.4-2,1.4
			c-1.3-0.1-2.3-1-3.1-2c-0.7-0.9-0.9-2.3-0.1-3.2c1-1.1,2.9-1.3,4.1-0.3c-0.1-0.8-0.9-1.1-1.7-1.2C53,44.2,52,44.4,51.3,45
			c-0.8,0.6-1.1,1.6-1,2.5c0.1,1.3,0.9,2.5,1.8,3.4C52.8,51.6,53.7,52.2,54.8,52.3z"/>
		<path class="st0" d="M108.3,50.2c-0.3,0.7-0.9,1.2-1.5,1.6c0.7-0.1,1.4-0.5,1.9-1.1c0.9-1.2,0.5-3-0.7-3.8
			c-0.7-0.5-1.6-0.5-2.4-0.3c0.6,0.1,1.3,0.2,1.8,0.6C108.4,47.8,108.8,49.1,108.3,50.2z"/>
		<path class="st0" d="M43,81c2.9-1,5.5-3,7.3-5.5c-0.5,1.9-0.4,4,0.2,5.8c-0.2-1.7-0.1-3.4,0.4-5c0.9-3,3.2-5.6,6.2-6.7
			c2.9-1.2,6.4-0.9,9.2,0.7c2.3,1.3,4,3.5,5,6c-0.3-2.5-1.7-4.9-3.7-6.5c-2.4-1.9-5.6-2.7-8.6-2.2c-2.5,0.4-4.8,1.8-6.4,3.7
			c1.3-3.7,1.1-7.9-0.6-11.5c-1.3-2.9-3.6-5.4-6.4-7c-2.5-1.4-5.4-2.1-8.2-2c-3.7,0.2-7.4,1.7-9.9,4.5c0.5-0.3,1-0.8,1.5-1.1
			c3.2-2.2,7.2-3,11-2.3c3.1,0.5,6,2.1,8.1,4.4c3.8,4,5,10.1,3,15.2c-1.1,2.9-3.1,5.4-5.7,7c-3.4,2.2-7.7,2.9-11.6,1.9
			c-2.7-0.7-5.1-2.1-7.1-4c1.5,1.7,3.3,3.1,5.4,4C35.3,82.2,39.4,82.3,43,81z"/>
		<path class="st0" d="M118.9,51.9c-1-0.8-2.4-1.1-3.7-0.8c-1.5,0.4-2.7,1.7-3,3.2c-0.3,1.5,0.3,3.2,1.5,4.2c1.2,1,3,1.1,4.4,0.5
			c1.3-0.6,2.2-2,2.3-3.4C120.6,54.2,120,52.8,118.9,51.9z M117.1,58.4c-1.6,0.5-3.5-0.6-3.9-2.2c-0.5-1.6,0.5-3.5,2.1-4
			c1.7-0.7,3.8,0.5,4.2,2.2C119.9,56,118.8,58,117.1,58.4z"/>
		<path class="st0" d="M36.7,54.4c-0.7-0.7-1.5-1.3-2.3-2c-0.1,0-0.2,0-0.3,0c-0.5,0.9-0.9,1.9-1.2,2.9c0,0.1,0.1,0.2,0.2,0.3
			c1.2-0.2,2.4-0.5,3.6-0.8C36.7,54.7,36.7,54.5,36.7,54.4z M33.9,54.8c0.2-0.5,0.4-1,0.6-1.5c0.4,0.3,0.8,0.7,1.2,1
			C35.1,54.5,34.5,54.6,33.9,54.8z"/>
		<path class="st0" d="M115.4,52.6c-1.4,0.5-2.2,2.1-1.6,3.5c0-1.2,0.6-2.4,1.7-2.8c1.3-0.5,2.8,0.2,3.4,1.4
			C118.8,53.1,116.8,52.1,115.4,52.6z"/>
		<path class="st0" d="M32.7,62.8c0.2,0.8,1.1,1.1,1.8,1.4c0.8,0.3,1.5,0.9,2.4,1c1.2,0.1,1.6-1.2,2.3-2c0.5-0.8,1.5-1.5,1.1-2.6
			c-0.3-1.1-0.4-2.3-1.1-3.2c-0.9-1.2-2.5-1.8-4-1.5c-1.5,0.3-2.7,1.5-3,3C31.9,60.3,32.4,61.6,32.7,62.8z M35.1,57
			c1.1-0.4,2.5,0,3.2,1c0.6,0.7,0.7,1.7,0.9,2.5c0,0.3,0.2,0.7,0,1c-0.6,0.8-1.2,1.7-1.8,2.5c-0.1,0.2-0.5,0.4-0.7,0.3
			c-1-0.5-2-0.9-3-1.5c-0.3-0.7-0.4-1.5-0.6-2.2C32.7,59.1,33.6,57.4,35.1,57z"/>
		<path class="st0" d="M34.1,59.1c0.6-1.2,2.2-1.5,3.2-0.8c0.9,0.6,1,1.7,1.4,2.5c-0.1-1.1-0.1-2.4-1.1-3.1c-1.3-1.1-3.4-0.6-4.1,1
			c-0.6,1.1,0,2.3,0.5,3.3C34,61.1,33.6,60.1,34.1,59.1z"/>
		<path class="st0" d="M47.7,66.5c0.6-1.3,0.5-2.9-0.4-4.1c-0.9-1.1-2.4-1.8-3.8-1.5c-0.9,0.3-2,0.2-2.8,0.9C40,62.9,39.5,64,39,65
			c-0.4,0.6-0.3,1.5,0.2,1.9c0.7,0.6,1.5,1.1,2.2,1.7c0.4,0.3,0.9,0.7,1.5,0.6c0.8-0.1,1.5-0.3,2.3-0.5
			C46.3,68.3,47.2,67.5,47.7,66.5z M42.6,68.2c-1-0.7-1.9-1.4-2.8-2.1c0-0.1-0.1-0.3-0.1-0.4c0.4-1,1-1.9,1.4-2.9
			c0.3-0.8,1.4-0.7,2.1-1c1.5-0.5,3.4,0.5,3.8,2c0.5,1.5-0.5,3.4-2.1,3.8C44.2,67.9,43.4,68.2,42.6,68.2z"/>
		<path class="st0" d="M49.6,65.4c0.6-0.7,1.2-1.3,1.7-2c0.2-0.2,0-0.5-0.2-0.6c-0.7-0.3-1.3-0.5-2-0.8c-0.3,0-0.6-0.4-0.9-0.1
			L48.2,62c0.2,1.1,0.5,2.2,0.8,3.3C49,65.6,49.4,65.6,49.6,65.4z M50.5,63.2c-0.3,0.4-0.7,0.8-1,1.2c-0.2-0.6-0.3-1.2-0.4-1.8
			C49.5,62.8,50,63,50.5,63.2z"/>
		<path class="st0" d="M46.7,64.6c-0.1-1.1-0.9-2.1-2-2.3c-1-0.3-2,0.2-2.9,0.6c0,0.1,0.1,0.2,0.1,0.2l0.1-0.3
			c0.9,0,1.9-0.4,2.8,0.1c1.2,0.5,1.6,2.2,0.8,3.2c-0.6,0.9-1.7,1-2.6,1.5c0.6,0,1.2-0.1,1.8-0.2C46.1,67,46.9,65.8,46.7,64.6z"/>
		<path class="st0" d="M82.3,64.3c0.5,0.3,1.1-0.1,1-0.7c0-0.5-0.7-0.8-1.1-0.5C81.9,63.3,81.9,64,82.3,64.3z"/>
		<path class="st0" d="M80.3,64.7c0.4,0.3,1,0,1-0.5c0.1-0.5-0.5-0.9-1-0.7C79.9,63.7,79.9,64.5,80.3,64.7z"/>
		<path class="st0" d="M28.9,64.7c-1.3,0.8-2,2.5-1.7,4c0.3,1.6,1.6,2.9,3.1,3.1c1.2,0.2,2.4-0.2,3.5-0.5c0.5-0.1,0.9-0.5,1.1-1
			c0.4-0.9,0.9-1.8,1.3-2.8c0.3-0.6,0-1.4-0.5-1.8c-0.9-0.6-1.7-1.3-2.6-1.9c-0.6-0.4-1.3-0.2-1.9,0C30.4,64.1,29.6,64.2,28.9,64.7z
			 M32.7,64.8c0.9,0.7,1.9,1.3,2.7,2c0.2,0.7-0.4,1.2-0.6,1.9c-0.4,0.7-0.5,1.8-1.5,1.9c-1.2,0.3-2.4,0.8-3.6,0.1
			c-1.6-0.8-2.2-3.1-1.1-4.5c0.7-1.1,2-1.2,3.2-1.5C32.1,64.6,32.5,64.5,32.7,64.8z"/>
		<path class="st0" d="M78,65.2c0.4,0.3,1.1-0.1,1.1-0.6c0-0.5-0.6-0.9-1.1-0.6C77.6,64.2,77.5,64.9,78,65.2z"/>
		<path class="st0" d="M76.7,65.4c0.1-0.5-0.4-1-0.9-0.8c-0.5,0.2-0.6,0.8-0.2,1.2C75.9,66.2,76.7,65.9,76.7,65.4z"/>
		<path class="st0" d="M81.6,66c0.4,0.3,1.1,0,1.1-0.5c0.1-0.5-0.5-0.9-0.9-0.7C81.2,65,81.1,65.8,81.6,66z"/>
		<path class="st0" d="M74.3,65.9c0.2-0.5-0.3-1-0.9-0.9c-0.5,0.1-0.7,0.8-0.3,1.2C73.5,66.6,74.2,66.4,74.3,65.9z"/>
		<path class="st0" d="M30,70.4c1.1,0.5,2.3,0,3.3-0.5c-1,0-2.2,0.5-3.1-0.1c-1.1-0.6-1.5-2.1-0.7-3.2c0.6-0.9,1.8-1,2.7-1.5
			c-1.1,0.1-2.5,0.1-3.2,1.1C27.9,67.6,28.5,69.8,30,70.4z"/>
		<path class="st0" d="M79.1,66.4c0.3,0.4,1.1,0.3,1.2-0.2c0.2-0.5-0.4-1-0.9-0.9C78.9,65.4,78.8,66,79.1,66.4z"/>
		<path class="st0" d="M77.2,67.2c0.4,0.3,1.1-0.1,1-0.6c0-0.6-0.8-0.9-1.2-0.5C76.7,66.3,76.8,67,77.2,67.2z"/>
		<path class="st0" d="M74.9,67.6c0.5,0.2,1.1-0.2,1-0.7c0-0.5-0.6-0.8-1-0.5C74.3,66.6,74.4,67.4,74.9,67.6z"/>
		<path class="st0" d="M81.9,67.1c-0.1-0.5-0.8-0.7-1.2-0.3c-0.4,0.3-0.2,1.1,0.3,1.2C81.6,68.1,82.1,67.6,81.9,67.1z"/>
		<path class="st0" d="M79.7,67.9c0.1-0.5-0.5-0.9-0.9-0.7c-0.5,0.2-0.6,1-0.1,1.2C79,68.7,79.7,68.4,79.7,67.9z"/>
		<path class="st0" d="M26.9,70.7c-0.2-1.1-0.5-2.1-0.8-3.2c0-0.3-0.5-0.4-0.6-0.2c-0.6,0.7-1.2,1.4-1.8,2.2c0,0.1,0,0.2,0,0.3
			c0.8,0.5,1.7,0.8,2.6,1.1C26.5,71.1,26.9,71,26.9,70.7z M24.6,69.5c0.3-0.4,0.7-0.8,1-1.2c0.2,0.6,0.3,1.2,0.5,1.8
			C25.6,69.9,25.1,69.7,24.6,69.5z"/>
		<path class="st0" d="M42.8,71.3c-0.2-0.7-0.2-1.7-1-2c-0.9-0.5-1.9-0.9-2.8-1.4c-0.4-0.2-0.9-0.3-1.3-0.2
			c-0.8,0.3-1.1,1.1-1.6,1.7c-0.4,0.7-1.1,1.2-1.3,2.1c0,0.8,0.3,1.6,0.5,2.4c0.4,1.6,1.8,2.9,3.5,3c1.7,0.2,3.4-0.9,4-2.5
			C43.3,73.4,43.1,72.3,42.8,71.3z M41.5,74.9c-1,1.2-3.1,1.4-4.3,0.3c-1-0.8-1.1-2.2-1.4-3.4c-0.2-0.4,0.2-0.7,0.4-1
			c0.6-0.7,1.1-1.5,1.7-2.2c0.1,0,0.2-0.1,0.3-0.1c1,0.4,2,1,2.9,1.4c0.7,0.3,0.6,1.2,0.8,1.8C42.3,72.8,42.3,74,41.5,74.9z"/>
		<path class="st0" d="M76.5,67.6c-0.5,0.1-0.7,0.8-0.3,1.1c0.3,0.4,1.1,0.2,1.2-0.3C77.5,68,77,67.5,76.5,67.6z"/>
		<path class="st0" d="M66.5,72.3c-2-1.6-4.7-2.3-7.2-1.8c-3,0.5-5.5,2.7-6.6,5.6c-1,2.5-0.7,5.5,0.8,7.8c1.4,2.2,3.9,3.8,6.5,4
			c2.3,0.2,4.8-0.5,6.6-2c2-1.7,3.2-4.2,3.1-6.8C69.8,76.5,68.5,73.9,66.5,72.3z M68.8,79.6c-0.1,2.2-1.1,4.2-2.8,5.6
			c-1.6,1.4-3.7,2-5.8,1.8c-2.2-0.2-4.3-1.4-5.7-3.2c-1.4-1.9-1.9-4.5-1.2-6.8c0.8-2.8,3.3-5.1,6.2-5.6c2.4-0.5,5,0.3,6.8,2
			C68,75,68.9,77.3,68.8,79.6z"/>
		<path class="st0" d="M41.1,73.6c-0.5,1.2-2.1,1.7-3.2,0.9c-1-0.6-1-1.8-1.5-2.7c0.1,1.1,0.1,2.4,1.1,3.1c1.3,1.1,3.5,0.6,4.1-1
			c0.5-1.1,0-2.2-0.4-3.2C41.1,71.7,41.6,72.7,41.1,73.6z"/>
		<path class="st0" d="M79.5,78c1.5,0.5,3.3-0.1,4.1-1.4c0.8-1.2,0.7-2.9-0.3-4c-0.8-1-2.3-1.5-3.5-1.1c-1.4,0.4-2.5,1.7-2.5,3.2
			C77.2,76.1,78.2,77.5,79.5,78z"/>
		<path class="st0" d="M72.9,84.2c1-0.2,1.9-0.5,2.9-0.7c0.1-0.6,0.3-1.3,1-1.4c3.3-0.8,6.7-1.6,10.1-2.4c0.6-0.2,1.1,0.4,1.4,0.8
			c1-0.2,1.9-0.5,2.9-0.7c-2.2-2.2-3.1-5.4-3-8.5c-1.2,1.9-1,4.3-1.4,6.4c-0.3,0.5-0.8,0.7-1.2,0.9c-1.7,0.8-3.6,1.2-5.4,1.6
			c-1.2,0.2-2.5,0.5-3.7,0.3c-0.7-0.1-0.9-0.9-1.3-1.4c-1-1.4-1.8-3-3.4-3.9C73.1,77.9,73.8,81.2,72.9,84.2z"/>
		<path class="st0" d="M59.5,73.2c-1.6,0.4-3,1.4-3.9,2.8c-1.5,2.4-1.1,5.8,1,7.7c2,1.9,5.2,2.2,7.5,0.8c2.4-1.4,3.6-4.7,2.6-7.3
			C65.8,74.2,62.5,72.4,59.5,73.2z M62.2,84.3c-2.7,0.8-5.7-1-6.3-3.7c-0.8-2.7,1-5.9,3.8-6.5c2.7-0.7,5.7,1,6.3,3.7
			C66.8,80.5,65,83.6,62.2,84.3z"/>
		<path class="st0" d="M62,74.8c-1.8-0.5-3.9,0.3-4.8,2c-0.6,1-0.6,2.1-0.4,3.2c0.2-0.8,0.2-1.7,0.6-2.4c0.9-1.8,3.2-2.7,5-2
			c1.2,0.4,2,1.4,2.6,2.4C64.7,76.5,63.5,75.2,62,74.8z"/>
		<path class="st0" d="M118.1,75.4c0.6,1.2,1.1,2.4,1,3.8c-0.1,3.3-3.7,6-6.9,5.2c0,0.8,0.8,1,1.4,1.1c1.7,0.2,3.2-0.8,4.4-1.9
			c2.3-2.2,2.3-6.3,0.1-8.6C118.1,75.1,118.1,75.3,118.1,75.4z"/>
		<path class="st0" d="M41.6,77.2c-1,0.3-2,0.4-3,0.8c0,0.1-0.1,0.3-0.1,0.4c0.8,0.7,1.5,1.5,2.5,2l0.2-0.1c0.4-0.9,0.8-1.8,1.1-2.8
			C42.4,77.1,41.8,77.1,41.6,77.2z M40.8,79.4c-0.4-0.3-0.8-0.7-1.2-1c0.6-0.2,1.2-0.3,1.8-0.4C41.2,78.4,41,78.9,40.8,79.4z"/>
		<path class="st0" d="M66.7,82.8c-1.6,2.6-5,3.8-7.8,2.8c-2.1-0.7-3.8-2.4-4.5-4.5c0.4,2.5,2.5,4.6,4.9,5.2
			c2.7,0.8,5.9-0.3,7.5-2.7c1.2-1.7,1.5-3.9,1-5.9C67.9,79.5,67.7,81.3,66.7,82.8z"/>
		<path class="st0" d="M63,80.3c-0.8,1.1-2.4,1.4-3.6,0.8c-0.7-0.3-1.1-1-1.5-1.6c0.2,1.7,2,3,3.7,2.5c1.7-0.3,2.8-2.3,2.1-3.9
			C63.7,78.9,63.6,79.7,63,80.3z"/>
		<path class="st0" d="M49,78.7c-1,1.6-2.7,2.6-4.4,3.3c-4,1.5-8.6,1.4-12.7,0c1.3,1.1,2.9,1.9,4.5,2.4c3.4,1,7,0.9,10.4,0.1
			c0.4,2.2,0.2,4.4,0.2,6.6c-0.4,6.5-1.2,13.1-2,19.5c2.6-0.5,4.4-2.7,5.8-4.7c0.6-0.6,0.4-1.5,0.5-2.3c0.4-4.6,1.1-9.1,1.8-13.6
			c-1.3-1.6-2.4-3.4-2.9-5.5C49.7,82.6,49.3,80.6,49,78.7z"/>
		<path class="st0" d="M133,92.4c-2.8,1.1-5.8,1.8-8.9,1.7c2.2,1.6,4.7,3,7.5,3.3c1.8,0.2,3.6-0.3,5.1-1.3c1.8-1.1,3.8-2.5,4.4-4.7
			c-1.4,1-3,2-4.7,2.4c2.8-2,4.8-4.8,6.1-8C140,88.7,136.7,91,133,92.4z"/>
		<path class="st0" d="M106.7,95.6c-1.1,3-3.3,5.7-6.2,7.1c-2.6,1.4-5.8,1.5-8.6,0.5c-2.5-0.8-4.6-2.4-6.1-4.4
			c-0.2,0.4,0.2,0.7,0.3,1c2.3,3.3,6.3,5.3,10.3,5c4.9-0.3,9.4-3.9,10.6-8.7C107.2,96,106.9,95.8,106.7,95.6z"/>
		<path class="st0" d="M81.8,111.7c-4.1,2.7-8.9,4.7-13.8,5.2c-0.5-0.1-0.5,0.8,0,0.7c5.8-0.3,11.6-2.4,15.8-6.4
			c0.3-0.2,0.2-0.5,0.2-0.8C83.1,110.7,82.5,111.2,81.8,111.7z"/>
		<path class="st0" d="M29.5,113.1c2.5,2.3,5.7,3.9,9.1,4.4c-1.7,0.5-3.5,0.2-5.3,0c1.3,1.5,3.3,1.9,5.2,2.1
			c1.7,0.2,3.6,0.2,5.1-0.7c2.8-1.4,4.7-4.1,6-6.8c-2.5,1.4-5.3,2.2-8.1,2.5C37.5,115.1,33.3,114.7,29.5,113.1z"/>
		<path class="st0" d="M192.2,58h10.6c-0.4,3.1-1.8,5.6-4.2,7.5c-2.4,1.9-5.3,2.9-8.7,2.9c-2.8,0-5.4-0.7-7.8-1.9s-4.2-3.1-5.6-5.3
			c-1.3-2.3-2-4.7-2-7.2c0-2.5,0.7-4.8,2-7c1.3-2.2,3.1-3.9,5.5-5.2c2.4-1.3,4.9-1.9,7.5-1.9c2.1,0,4.3,0.5,6.5,1.4
			c2.2,0.9,4.2,2.3,6.1,4.2l2.6-2.5c-2.4-2.2-4.8-3.9-7.3-4.9c-2.5-1-5.2-1.5-8-1.5c-3.5,0-6.6,0.8-9.4,2.3
			c-2.8,1.5-4.9,3.7-6.5,6.4c-1.6,2.7-2.4,5.7-2.4,8.8c0,4.2,1.4,8,4.2,11.2c3.6,4.2,8.5,6.3,14.7,6.3c5.1,0,9.1-1.5,12.2-4.5
			c3-3,4.6-7.1,4.6-12.3h-14.4V58z"/>
		<path class="st0" d="M242.1,70.8l-15.6-33.4h-0.8L210,70.8h3.7l5.2-11h14.4l5.2,11H242.1z M220.5,56.6l5.7-12.1l5.7,12.1H220.5z"
			/>
		<polygon class="st0" points="278.1,37.4 264.7,64.8 251.1,37.4 250.6,37.4 245.8,70.8 249,70.8 252.3,46.8 264.2,70.8 265.1,70.8 
			276.9,46.9 280.2,70.8 283.4,70.8 278.6,37.4 		"/>
		<rect x="289.5" y="37.4" class="st0" width="3.3" height="33.4"/>
		<polygon class="st0" points="323.4,63 301.2,37.4 300.5,37.4 300.5,70.8 304,70.8 304,45.5 326,70.8 326.7,70.8 326.7,37.4 
			323.4,37.4 		"/>
		<path class="st0" d="M354.6,54.8V58h10.6c-0.4,3.1-1.8,5.6-4.2,7.5c-2.4,1.9-5.3,2.9-8.7,2.9c-2.8,0-5.4-0.7-7.8-1.9
			s-4.2-3.1-5.6-5.3c-1.3-2.3-2-4.7-2-7.2c0-2.5,0.7-4.8,2-7c1.3-2.2,3.1-3.9,5.5-5.2c2.4-1.3,4.9-1.9,7.5-1.9
			c2.1,0,4.3,0.5,6.5,1.4c2.2,0.9,4.2,2.3,6.1,4.2L367,43c-2.4-2.2-4.8-3.9-7.3-4.9c-2.5-1-5.2-1.5-8-1.5c-3.5,0-6.6,0.8-9.4,2.3
			c-2.8,1.5-4.9,3.7-6.5,6.4c-1.6,2.7-2.4,5.7-2.4,8.8c0,4.2,1.4,8,4.2,11.2c3.6,4.2,8.5,6.3,14.7,6.3c5.1,0,9.1-1.5,12.2-4.5
			c3-3,4.6-7.1,4.6-12.3L354.6,54.8L354.6,54.8z"/>
		<path class="st0" d="M185.3,93.2l-15.8,33.4h3.7l5.2-11h14.4l5.2,11h3.6l-15.6-33.4H185.3z M180,112.3l5.7-12.1l5.7,12.1H180z"/>
		<path class="st0" d="M221.1,93.7c-1.3-0.3-3.9-0.5-7.7-0.5h-6.6v33.4h3.3V111h2.4c4.1,0,7-0.2,8.5-0.5c2.1-0.5,3.7-1.5,4.9-2.9
			s1.8-3.3,1.8-5.5c0-2.2-0.6-4-1.8-5.5C224.6,95.1,223.1,94.1,221.1,93.7z M223.3,105.2c-0.6,0.9-1.4,1.6-2.5,2
			c-1.1,0.4-2.7,0.6-5,0.6l-5.7-0.1V96.4h5.9c2.2,0,3.9,0.2,4.9,0.6s1.8,1,2.4,2c0.6,0.9,0.9,2,0.9,3.1
			C224.2,103.2,223.9,104.3,223.3,105.2z"/>
		<path class="st0" d="M248.6,93.7c-1.3-0.3-3.9-0.5-7.7-0.5h-6.6v33.4h3.3V111h2.4c4.1,0,7-0.2,8.5-0.5c2.1-0.5,3.7-1.5,4.9-2.9
			s1.8-3.3,1.8-5.5c0-2.2-0.6-4-1.8-5.5C252.1,95.1,250.5,94.1,248.6,93.7z M250.8,105.2c-0.6,0.9-1.4,1.6-2.5,2
			c-1.1,0.4-2.7,0.6-5,0.6l-5.7-0.1V96.4h5.9c2.2,0,3.9,0.2,4.9,0.6s1.8,1,2.4,2c0.6,0.9,0.9,2,0.9,3.1
			C251.7,103.2,251.4,104.3,250.8,105.2z"/>
	</g>
</g>
</svg>
